<svg width="132" height="27" viewBox="0 0 132 27" fill="none" xmlns="http://www.w3.org/2000/svg">
<g filter="url(#filter0_i_2_16)">
<path d="M8.23 20.073L0 15.216L8.225 26.811L16.459 15.216L8.225 20.073H8.23ZM8.352 0L0.125999 13.654L8.352 18.519L16.582 13.659L8.352 0Z" fill="url(#paint0_linear_2_16)"/>
</g>
<path d="M18.7659 23.3268C18.2618 23.3268 17.7975 23.2008 17.373 22.9487C16.9618 22.6967 16.6301 22.365 16.3781 21.9538C16.126 21.5293 16 21.065 16 20.5609V11.7659C16 11.2618 16.126 10.8041 16.3781 10.3929C16.6301 9.96838 16.9618 9.63011 17.373 9.37807C17.7975 9.12602 18.2618 9 18.7659 9H27.5609C28.0649 9 28.5226 9.12602 28.9338 9.37807C29.3583 9.63011 29.6966 9.96838 29.9487 10.3929C30.2007 10.8041 30.3267 11.2618 30.3267 11.7659V20.5609C30.3267 21.065 30.2007 21.5293 29.9487 21.9538C29.6966 22.365 29.3583 22.6967 28.9338 22.9487C28.5226 23.2008 28.0649 23.3268 27.5609 23.3268H18.7659ZM18.8654 20.6803H27.4216C27.4879 20.6803 27.5476 20.6604 27.6007 20.6206C27.6537 20.5676 27.6802 20.5079 27.6802 20.4415V11.8852C27.6802 11.8189 27.6537 11.7659 27.6007 11.7261C27.5476 11.673 27.4879 11.6465 27.4216 11.6465H18.8654C18.799 11.6465 18.7393 11.673 18.6863 11.7261C18.6465 11.7659 18.6266 11.8189 18.6266 11.8852V20.4415C18.6266 20.5079 18.6465 20.5676 18.6863 20.6206C18.7393 20.6604 18.799 20.6803 18.8654 20.6803ZM34.8924 23.3268C34.3883 23.3268 33.9307 23.2008 33.5195 22.9487C33.1082 22.6967 32.7766 22.365 32.5245 21.9538C32.2725 21.5426 32.1465 21.0849 32.1465 20.5808V14.5317C32.1465 14.0276 32.2725 13.57 32.5245 13.1587C32.7766 12.7475 33.1082 12.4159 33.5195 12.1638C33.9307 11.9118 34.3883 11.7858 34.8924 11.7858H43.8467V14.3924H34.9919C34.9256 14.3924 34.8659 14.419 34.8128 14.472C34.773 14.5118 34.7532 14.5649 34.7532 14.6312V20.4813C34.7532 20.5477 34.773 20.6074 34.8128 20.6604C34.8659 20.7002 34.9256 20.7201 34.9919 20.7201H43.8666V23.3268H34.8924ZM48.2227 23.3268C47.7186 23.3268 47.261 23.2008 46.8497 22.9487C46.4385 22.6967 46.1069 22.365 45.8548 21.9538C45.6028 21.5426 45.4768 21.0849 45.4768 20.5808V14.5317C45.4768 14.0276 45.6028 13.57 45.8548 13.1587C46.1069 12.7475 46.4385 12.4159 46.8497 12.1638C47.261 11.9118 47.7186 11.7858 48.2227 11.7858H54.4509C54.955 11.7858 55.4126 11.9118 55.8239 12.1638C56.2484 12.4159 56.58 12.7475 56.8188 13.1587C57.0708 13.57 57.1968 14.0276 57.1968 14.5317V18.8696H48.0834V20.4813C48.0834 20.5477 48.1033 20.6074 48.1431 20.6604C48.1962 20.7002 48.2559 20.7201 48.3222 20.7201H57.1968V23.3268H48.2227ZM48.0834 16.5215H54.5902V14.6312C54.5902 14.5649 54.5636 14.5118 54.5106 14.472C54.4708 14.419 54.4177 14.3924 54.3514 14.3924H48.3222C48.2559 14.3924 48.1962 14.419 48.1431 14.472C48.1033 14.5118 48.0834 14.5649 48.0834 14.6312V16.5215ZM62.0198 23.3268C61.5157 23.3268 61.0515 23.2008 60.627 22.9487C60.2157 22.6967 59.8841 22.365 59.632 21.9538C59.3933 21.5426 59.2739 21.0849 59.2739 20.5808V16.243H68.3873V14.6312C68.3873 14.5649 68.3608 14.5118 68.3077 14.472C68.2679 14.419 68.2148 14.3924 68.1485 14.3924H59.2739V11.7858H68.248C68.7521 11.7858 69.2097 11.9118 69.621 12.1638C70.0455 12.4159 70.3771 12.7475 70.6159 13.1587C70.8679 13.57 70.994 14.0276 70.994 14.5317V23.3268H62.0198ZM62.1193 20.7201H68.3873V18.591H61.8805V20.4813C61.8805 20.5477 61.9004 20.6074 61.9402 20.6604C61.9933 20.7002 62.053 20.7201 62.1193 20.7201ZM72.916 23.3268V11.7858H81.8901C82.3942 11.7858 82.8519 11.9118 83.2631 12.1638C83.6876 12.4159 84.0192 12.7475 84.258 13.1587C84.5101 13.57 84.6361 14.0276 84.6361 14.5317V23.3268H82.0294V14.6312C82.0294 14.5649 82.0029 14.5118 81.9498 14.472C81.91 14.419 81.857 14.3924 81.7906 14.3924H75.7615C75.6951 14.3924 75.6354 14.419 75.5824 14.472C75.5426 14.5118 75.5227 14.5649 75.5227 14.6312V23.3268H72.916Z" fill="white" fill-opacity="0.6"/>
<path d="M86.8107 23.3268V9H89.696L98.491 19.4665V9H101.138V23.3268H98.2522L89.4373 12.8404V23.3268H86.8107ZM103.407 23.3268V9H116.599V11.6465H106.053V14.8302H114.53V17.4966H106.053V23.3268H103.407ZM123.075 23.3268V11.6465H117.225V9H131.551V11.6465H125.721V23.3268H123.075Z" fill="white"/>
<defs>
<filter id="filter0_i_2_16" x="0" y="0" width="16.582" height="31.2328" filterUnits="userSpaceOnUse" color-interpolation-filters="sRGB">
<feFlood flood-opacity="0" result="BackgroundImageFix"/>
<feBlend mode="normal" in="SourceGraphic" in2="BackgroundImageFix" result="shape"/>
<feColorMatrix in="SourceAlpha" type="matrix" values="0 0 0 0 0 0 0 0 0 0 0 0 0 0 0 0 0 0 127 0" result="hardAlpha"/>
<feOffset dy="4.42184"/>
<feGaussianBlur stdDeviation="53.6148"/>
<feComposite in2="hardAlpha" operator="arithmetic" k2="-1" k3="1"/>
<feColorMatrix type="matrix" values="0 0 0 0 1 0 0 0 0 0.337255 0 0 0 0 0.964706 0 0 0 0.51 0"/>
<feBlend mode="normal" in2="shape" result="effect1_innerShadow_2_16"/>
</filter>
<linearGradient id="paint0_linear_2_16" x1="0" y1="0" x2="20.151" y2="0.485" gradientUnits="userSpaceOnUse">
<stop offset="0.183111" stop-color="#FF56F6"/>
<stop offset="0.432593" stop-color="#B936EE"/>
<stop offset="0.854443" stop-color="#3BACE2"/>
<stop offset="1" stop-color="#406AFF"/>
</linearGradient>
</defs>
</svg>
